<svg width="20" height="24" viewBox="0 0 20 24" fill="none" xmlns="http://www.w3.org/2000/svg">
<path d="M17.5 1H2.1C1.49249 1 1 1.49249 1 2.1V21.9C1 22.5075 1.49249 23 2.1 23H17.5C18.1075 23 18.6 22.5075 18.6 21.9V2.1C18.6 1.49249 18.1075 1 17.5 1Z" stroke="url(#paint0_linear_2_1780)" stroke-width="1.5" stroke-linecap="round" stroke-linejoin="round"/>
<path d="M5.3999 1H10.3499V9.8L7.8749 7.6L5.3999 9.8V1Z" stroke="url(#paint1_linear_2_1780)" stroke-width="1.5" stroke-linecap="round" stroke-linejoin="round"/>
<path d="M5.3999 14.2H10.8999" stroke="url(#paint2_linear_2_1780)" stroke-width="1.5" stroke-linecap="round"/>
<path d="M5.3999 17.5H14.1999" stroke="url(#paint3_linear_2_1780)" stroke-width="1.5" stroke-linecap="round"/>
<defs>
<linearGradient id="paint0_linear_2_1780" x1="2.54367" y1="1" x2="21.3571" y2="2.83877" gradientUnits="userSpaceOnUse">
<stop stop-color="#F79E0E"/>
<stop offset="1" stop-color="#EEBD23"/>
</linearGradient>
<linearGradient id="paint1_linear_2_1780" x1="5.83406" y1="1" x2="11.1508" y2="1.36537" gradientUnits="userSpaceOnUse">
<stop stop-color="#F79E0E"/>
<stop offset="1" stop-color="#EEBD23"/>
</linearGradient>
<linearGradient id="paint2_linear_2_1780" x1="5.8823" y1="14.2" x2="9.97141" y2="16.9477" gradientUnits="userSpaceOnUse">
<stop stop-color="#F79E0E"/>
<stop offset="1" stop-color="#EEBD23"/>
</linearGradient>
<linearGradient id="paint3_linear_2_1780" x1="6.17174" y1="17.5" x2="10.5768" y2="22.2359" gradientUnits="userSpaceOnUse">
<stop stop-color="#F79E0E"/>
<stop offset="1" stop-color="#EEBD23"/>
</linearGradient>
</defs>
</svg>
