<svg width="9" height="13" viewBox="0 0 9 13" fill="none" xmlns="http://www.w3.org/2000/svg">
<path d="M0.25 8.00881H1.37944C1.7375 11.0932 3.77431 12.8751 6.98625 12.8751C7.64713 12.8751 8.22619 12.8028 8.74894 12.6785V11.2972C8.23469 11.4237 7.63863 11.4779 6.98625 11.4779C4.755 11.4779 3.31531 10.205 2.97531 8.00987H7.24337V7.02387H2.90306V6.02937C2.90306 5.91249 2.90306 5.79668 2.91156 5.67981H7.24444V4.69487H3.03163C3.44388 2.67824 4.85806 1.52331 6.98731 1.52331C7.63969 1.52331 8.23575 1.57643 8.75 1.71137V0.331181C8.1735 0.188293 7.58122 0.119033 6.98731 0.125056C3.87631 0.125056 1.86606 1.79212 1.41556 4.69381H0.25V5.67981H1.32313V7.02387H0.25V8.00987V8.00881Z" fill="#707070"/>
</svg>
