<svg width="20" height="30" viewBox="0 0 20 30" fill="none" xmlns="http://www.w3.org/2000/svg">
<path d="M0 18.5501H2.6575C3.5 25.8076 8.2925 30.0001 15.85 30.0001C17.405 30.0001 18.7675 29.8301 19.9975 29.5376V26.2876C18.7875 26.5851 17.385 26.7126 15.85 26.7126C10.6 26.7126 7.2125 23.7176 6.4125 18.5526H16.455V16.2326H6.2425V13.8926C6.2425 13.6176 6.2425 13.3451 6.2625 13.0701H16.4575V10.7526H6.545C7.515 6.00762 10.8425 3.29012 15.8525 3.29012C17.3875 3.29012 18.79 3.41512 20 3.73262V0.485118C18.6435 0.14891 17.2499 -0.0140542 15.8525 0.000118265C8.5325 0.000118265 3.8025 3.92262 2.7425 10.7501H0V13.0701H2.525V16.2326H0V18.5526V18.5501Z" fill="url(#paint0_linear_2_1769)"/>
<defs>
<linearGradient id="paint0_linear_2_1769" x1="1.75418" y1="-0.000729208" x2="23.1951" y2="1.74553" gradientUnits="userSpaceOnUse">
<stop stop-color="#F79E0E"/>
<stop offset="1" stop-color="#EEBD23"/>
</linearGradient>
</defs>
</svg>
